# xmcd
#
# Track frame offsets: 
#        150
#        21039
#        38685
#        57376
#        85027
#        98847
#        114647
#        131032
#        144820
#        167872
#        190023
#        205027
#        229031
#
# Disc length: 3264 seconds
#
# Revision: 2
# Processed by: cddbd v1.5.2PL0 Copyright (c) Steve Scherf et al.
# Submitted via: ExactAudioCopy v0.99pb4
#
DISCID=a30cbe0d
DTITLE=Willie "Big Eyes" Smith - Blues From The Heart
DYEAR=2000
DGENRE=Blues
TTITLE0=I'm The Creeper
TTITLE1=Breaking Hearts
TTITLE2=Big Rear End
TTITLE3=Watch Your Enemies
TTITLE4=Greasy Spoon
TTITLE5=Big Wig Woman
TTITLE6=The Sun Goes Down
TTITLE7=Cry For Me Baby
TTITLE8=Can't Rest For Worrry
TTITLE9=I Wonder Why
TTITLE10=Chicago Bound
TTITLE11=One Day Till Christmas
TTITLE12=Smokin' The Joint
EXTD=
EXTT0=
EXTT1=
EXTT2=
EXTT3=
EXTT4=
EXTT5=
EXTT6=
EXTT7=
EXTT8=
EXTT9=
EXTT10=
EXTT11=
EXTT12=
PLAYORDER=
